<svg xmlns="http://www.w3.org/2000/svg" viewBox="0 0 112.96 71.09"><defs><style>.cls-1{fill:#fff;}</style></defs><title>Asset 1</title><g id="Layer_2" data-name="Layer 2"><g id="Layer_1-2" data-name="Layer 1"><path class="cls-1" d="M56.56,37.32V36.24H46.3v1.08c3.07.27,3.38.46,3.38,3.65v6.22H36.27V41c0-3.19.31-3.38,3.3-3.65V36.24H29.39v1.08c3.22.27,3.54.42,3.54,3.65v6.29H26.47a11.06,11.06,0,0,0-3.29-7.75C20.74,37.24,17,36.24,12,36.24H1v1.11c3,.23,3.34.38,3.34,3.69v15.4c0,3.27-.31,3.49-3.7,3.73v1H10c4.84,0,8.73-1,11.68-3.19a11.84,11.84,0,0,0,4.8-9.14h6.49v7.61c0,3.23-.31,3.42-3.46,3.65v1.08H39.81V60.13c-3.22-.23-3.54-.46-3.54-3.65V48.8H49.68v7.68c0,3.23-.35,3.42-3.7,3.65v1.08H56.52V60.13c-3.18-.23-3.5-.42-3.5-3.65V41C53,37.78,53.34,37.59,56.56,37.32ZM11.89,59.83c-2.87,0-4.17-.73-4.17-3.65v-16c0-1.5.12-1.92.51-2.19a6.55,6.55,0,0,1,3.07-.46A12.46,12.46,0,0,1,18,39.12c3.14,1.8,4.64,5.22,4.64,9.18C22.62,54.45,19.24,59.83,11.89,59.83Z"/><path class="cls-1" d="M113,54.87a40.53,40.53,0,0,1-2.24,5.88,33.89,33.89,0,0,1-7.24,1c-9.79,0-14.08-6.61-14.08-12.72,0-.06,0-.13,0-.19H83.15v7.61c0,3.23.31,3.42,3.5,3.65v1.08H76.11V60.13c3.34-.23,3.7-.42,3.7-3.65V48.8H66.4v7.68c0,3.19.31,3.42,3.54,3.65v1.08H59.59V60.13c3.15-.23,3.46-.42,3.46-3.65V41c0-3.23-.31-3.38-3.54-3.65V36.24H69.7v1.08c-3,.27-3.3.46-3.3,3.65v6.22H79.81V41c0-3.19-.31-3.38-3.38-3.65V36.24H86.69v1.08c-3.23.27-3.54.46-3.54,3.65v6.29h6.37c.88-7,6.93-11.59,15-11.59a31.72,31.72,0,0,1,7,1c.31,2.19.55,3.73.79,5.8l-1.18.27c-1-4.07-3.38-5.72-7.63-5.72-6.57,0-10.07,5.41-10.07,11.25,0,7.18,4.32,12.1,10.3,12.1,4,0,6.14-2.11,8.1-6Z"/><path class="cls-1" d="M87.13,26.53V22.17a.35.35,0,0,0-.35-.35h-4V17.49a.35.35,0,0,0-.35-.35H77.85V12.8a.35.35,0,0,0-.35-.35H72.06v-4a.35.35,0,0,0-.35-.35H67.61V3.66h.5L67.07,0H47.2L46,3.66h.54V8.12h-4a.35.35,0,0,0-.35.35v4H36.71a.35.35,0,0,0-.35.35v4.34H31.74a.35.35,0,0,0-.35.35v4.34h-4a.35.35,0,0,0-.35.35v4.36H21.67v4.09H50.11L52.45,8.68a.17.17,0,0,1,.17-.16H53.9a.17.17,0,0,1,.17.17l-.66,21.92h7.36L60.12,8.7a.17.17,0,0,1,.17-.17h1.27a.17.17,0,0,1,.17.16l2.35,21.94h28.4V26.53ZM52.55,7.65a.17.17,0,0,1-.17.17H49.47a.17.17,0,0,1-.17-.17V4.4a.17.17,0,0,1,.17-.17h2.91a.17.17,0,0,1,.17.17Zm6.19,0a.17.17,0,0,1-.17.17H55.66a.17.17,0,0,1-.17-.17V4.4a.17.17,0,0,1,.17-.17h2.91a.17.17,0,0,1,.17.17Zm6.15,0a.17.17,0,0,1-.17.17H61.8a.17.17,0,0,1-.17-.17V4.4a.17.17,0,0,1,.17-.17h2.91a.17.17,0,0,1,.17.17Z"/><path class="cls-1" d="M3.2,66.7v3.06c0,.65-.4,1.33-1.6,1.33S0,70.58,0,69.76V66.7H1v3c0,.53.25.74.61.74s.63-.26.63-.74v-3Z"/><path class="cls-1" d="M3.92,71V66.7H5.25l1.25,3h0v-3h.92V71H6.14L4.86,67.86h0V71Z"/><path class="cls-1" d="M8.18,71V66.7h1V71Z"/><path class="cls-1" d="M9.53,66.7h1l.73,3.14h0l.82-3.14h1L11.85,71H10.69Z"/><path class="cls-1" d="M13.45,71V66.7H16v.66H14.44v1.06H15.9v.66H14.44v1.26h1.64V71Z"/><path class="cls-1" d="M17.59,71h-1V66.7h1.82a1,1,0,0,1,1.1,1.13,1,1,0,0,1-.87,1.06h0a.81.81,0,0,1,.85.85A5.47,5.47,0,0,0,19.62,71h-1a1.83,1.83,0,0,1-.1-.84c0-.51.05-1-.7-1h-.25Zm0-2.45H18c.39,0,.5-.36.5-.63s-.19-.57-.5-.57h-.44Z"/><path class="cls-1" d="M21.45,71.09c-1.22,0-1.45-.66-1.39-1.41h1c0,.41,0,.76.56.76a.45.45,0,0,0,.5-.49c0-.78-2-.83-2-2.11,0-.68.35-1.21,1.55-1.21,1,0,1.43.4,1.37,1.3h-1c0-.32-.06-.65-.46-.65s-.51.16-.51.46c0,.82,2,.75,2,2.11C23.09,71,22.2,71.09,21.45,71.09Z"/><path class="cls-1" d="M23.71,71V66.7h1V71Z"/><path class="cls-1" d="M28.24,66.7v.72H27.15V71h-1v-3.6H25.07V66.7Z"/><path class="cls-1" d="M29.48,69.53,28.25,66.7h1.08l.7,1.82.75-1.82h1l-1.32,2.82V71h-1Z"/><path class="cls-1" d="M33.48,68.86c0-1.14,0-2.23,1.62-2.23s1.62,1.09,1.62,2.23,0,2.23-1.62,2.23S33.48,70,33.48,68.86Zm2.25,0c0-1.11-.07-1.58-.63-1.58s-.63.48-.63,1.58.07,1.58.63,1.58S35.73,70,35.73,68.86Z"/><path class="cls-1" d="M37.4,71V66.7h2.44v.66H38.39v1.11h1.39v.66H38.39V71Z"/><path class="cls-1" d="M42.88,71.09c-1.22,0-1.45-.66-1.39-1.41h1c0,.41,0,.76.56.76a.45.45,0,0,0,.5-.49c0-.78-2-.83-2-2.11,0-.68.35-1.21,1.55-1.21,1,0,1.43.4,1.37,1.3h-1c0-.32-.06-.65-.46-.65s-.51.16-.51.46c0,.82,2,.75,2,2.11C44.52,71,43.63,71.09,42.88,71.09Z"/><path class="cls-1" d="M45.1,68.86c0-1.14,0-2.23,1.62-2.23s1.62,1.09,1.62,2.23,0,2.23-1.62,2.23S45.1,70,45.1,68.86Zm2.25,0c0-1.11-.07-1.58-.63-1.58s-.63.48-.63,1.58.07,1.58.63,1.58S47.34,70,47.34,68.86Z"/><path class="cls-1" d="M52.22,66.7v3.06c0,.65-.4,1.33-1.6,1.33S49,70.58,49,69.76V66.7h1v3c0,.53.25.74.61.74s.63-.26.63-.74v-3Z"/><path class="cls-1" d="M55.74,66.7v.72H54.65V71h-1v-3.6H52.57V66.7Z"/><path class="cls-1" d="M58.26,68.43V66.7h1V71h-1V69.09H57.13V71h-1V66.7h1v1.73Z"/><path class="cls-1" d="M61.36,71V66.7H63.8v.66H62.34v1.11h1.39v.66H62.34V71Z"/><path class="cls-1" d="M64.2,71V66.7h1v3.6h1.47V71Z"/><path class="cls-1" d="M67,68.86c0-1.14,0-2.23,1.62-2.23s1.62,1.09,1.62,2.23,0,2.23-1.62,2.23S67,70,67,68.86Zm2.25,0c0-1.11-.07-1.58-.63-1.58s-.63.48-.63,1.58.07,1.58.63,1.58S69.21,70,69.21,68.86Z"/><path class="cls-1" d="M71.87,71h-1V66.7H72.7a1,1,0,0,1,1.1,1.13,1,1,0,0,1-.87,1.06h0a.81.81,0,0,1,.85.85A5.47,5.47,0,0,0,73.89,71h-1a1.83,1.83,0,0,1-.1-.84c0-.51.05-1-.7-1h-.25Zm0-2.45h.44c.39,0,.5-.36.5-.63s-.19-.57-.5-.57h-.44Z"/><path class="cls-1" d="M74.44,71V66.7h1V71Z"/><path class="cls-1" d="M76.19,66.7h1.64c1.29,0,1.53.79,1.53,2.14,0,.66.11,2.18-1.57,2.18h-1.6Zm1,3.65h.48c.6,0,.72-.41.72-1.5,0-.8,0-1.5-.68-1.5h-.51Z"/><path class="cls-1" d="M79.71,71,81,66.7h1.3L83.59,71h-1l-.26-1H81l-.27,1Zm1.9-3.49h0l-.45,1.87h.94Z"/><path class="cls-1" d="M85.34,71V66.7h1v3.6H87.8V71Z"/><path class="cls-1" d="M88.15,71V66.7h1V71Z"/><path class="cls-1" d="M89.89,71V66.7h1.75c.75,0,1.37.2,1.37,1.12a.9.9,0,0,1-.8,1h0c.7.09.88.5.88,1.09C93.09,71,92,71,91.63,71Zm1-2.55h.66a.5.5,0,0,0,.51-.55.54.54,0,0,0-.57-.55h-.61Zm0,1.89h.55c.21,0,.68,0,.68-.61,0-.38-.16-.62-.65-.62h-.57Z"/><path class="cls-1" d="M94.74,71h-1V66.7h1.82a1,1,0,0,1,1.1,1.13,1,1,0,0,1-.87,1.06h0a.81.81,0,0,1,.85.85A5.47,5.47,0,0,0,96.77,71h-1a1.83,1.83,0,0,1-.1-.84c0-.51.05-1-.7-1h-.25Zm0-2.45h.44c.39,0,.5-.36.5-.63s-.19-.57-.5-.57h-.44Z"/><path class="cls-1" d="M97,71l1.3-4.32h1.3L100.84,71h-1l-.26-1H98.2l-.27,1Zm1.9-3.49h0l-.45,1.87h.94Z"/><path class="cls-1" d="M102.18,71h-1V66.7H103a1,1,0,0,1,1.1,1.13,1,1,0,0,1-.87,1.06h0a.81.81,0,0,1,.85.85,5.47,5.47,0,0,0,.11,1.27h-1a1.83,1.83,0,0,1-.1-.84c0-.51.05-1-.7-1h-.25Zm0-2.45h.44c.39,0,.5-.36.5-.63s-.19-.57-.5-.57h-.44Z"/><path class="cls-1" d="M104.76,71V66.7h1V71Z"/><path class="cls-1" d="M106.49,71V66.7h2.57v.66h-1.58v1.06h1.46v.66h-1.46v1.26h1.64V71Z"/><path class="cls-1" d="M110.94,71.09c-1.22,0-1.45-.66-1.39-1.41h1c0,.41,0,.76.56.76a.45.45,0,0,0,.5-.49c0-.78-2-.83-2-2.11,0-.68.35-1.21,1.55-1.21,1,0,1.43.4,1.37,1.3h-1c0-.32-.06-.65-.46-.65s-.51.16-.51.46c0,.82,2,.75,2,2.11C112.58,71,111.69,71.09,110.94,71.09Z"/></g></g></svg>