<svg xmlns="http://www.w3.org/2000/svg" viewBox="0 0 658.42 658.86"><defs><style>.cls-1{fill:#19aad9;}.cls-2{fill:#fff;}</style></defs><title>Asset 1</title><g id="Layer_2" data-name="Layer 2"><g id="Layer_1-2" data-name="Layer 1"><g id="Layer_2-2" data-name="Layer 2"><g id="Layer_1-2-2" data-name="Layer 1-2"><path class="cls-1" d="M339.79,658.86H318.71a12.93,12.93,0,0,0-1.76-.3A329,329,0,0,1,3.87,278.72a324.55,324.55,0,0,1,30.19-95.33c80.56-163,278-229.8,441-149.23a330.14,330.14,0,0,1,167.57,194,322.76,322.76,0,0,1,15.76,94.1c.19,10.35-.25,20.74-.82,31.08a287.59,287.59,0,0,1-6.9,47.83q-22.28,98.33-95.42,167.74a328.38,328.38,0,0,1-206.45,89.35C345.78,658.38,342.78,658.64,339.79,658.86ZM158,226.94c.86.49,1.37.8,1.9,1.08l164.17,87.07a3.41,3.41,0,0,0,3.64,0q82-43.52,164-87c.61-.33,1.2-.71,2-1.19-.8-.51-1.37-.92-2-1.26q-82-47.33-163.91-94.69a3.34,3.34,0,0,0-3.87,0Q242,178.34,160,225.65C159.48,226,158.89,226.39,158,226.94ZM300.66,525.49V357.11a3.36,3.36,0,0,0-2.08-3.41q-69-37.22-138-74.52c-.56-.3-1.15-.54-2-.93V441.34a3.24,3.24,0,0,0,1.84,3.25q69,39.78,138,79.63A25.1,25.1,0,0,0,300.66,525.49ZM493.93,279.26c-.82.39-1.41.64-2,.94q-68.71,37.12-137.44,74.22a3.23,3.23,0,0,0-2,3.29q.07,82.73,0,165.46v2.23c.84-.41,1.39-.63,1.89-.92l137.86-79.57a3.14,3.14,0,0,0,1.78-3.13q0-80.18,0-160.35A15.86,15.86,0,0,0,493.93,279.26Z"/><path class="cls-2" d="M158,226.94c.89-.55,1.48-.94,2.08-1.29q82-47.34,163.9-94.7a3.34,3.34,0,0,1,3.87,0q81.94,47.38,163.91,94.69c.6.35,1.18.75,2,1.26-.82.49-1.4.87-2,1.19q-82,43.48-164,87a3.41,3.41,0,0,1-3.64,0Q242,271.53,159.9,228C159.37,227.75,158.86,227.44,158,226.94Z"/><path class="cls-2" d="M300.66,525.49c-1-.56-1.65-.87-2.25-1.22q-69-39.83-138-79.63a3.24,3.24,0,0,1-1.84-3.25q.06-80.43,0-160.85v-2.28c.85.4,1.44.63,2,.93l138,74.52a3.36,3.36,0,0,1,2.08,3.41q-.08,83,0,166C300.66,523.75,300.66,524.4,300.66,525.49Z"/><path class="cls-2" d="M493.93,279.26c.06.91.13,1.54.13,2.18q0,80.18,0,160.35a3.14,3.14,0,0,1-1.78,3.13q-68.95,39.75-137.86,79.57c-.5.29-1,.51-1.89.92v-2.23q0-82.73,0-165.46a3.23,3.23,0,0,1,2-3.29Q423.26,317.35,492,280.2C492.52,279.89,493.11,279.65,493.93,279.26Z"/></g></g></g></g></svg>