<svg xmlns="http://www.w3.org/2000/svg" viewBox="0 0 658.41 658.6"><defs><style>.cls-1{fill:#fff;}</style></defs><title>Asset 3</title><g id="Layer_2" data-name="Layer 2"><g id="Layer_1-2" data-name="Layer 1"><path d="M339.79,658.6H318.71a12.93,12.93,0,0,0-1.76-.3,327.75,327.75,0,0,1-133.8-33.84,330.25,330.25,0,0,1-179.28-346,324.55,324.55,0,0,1,30.19-95.33,329.19,329.19,0,0,1,540.18-73.91A326.68,326.68,0,0,1,642.61,227.9,322.76,322.76,0,0,1,658.37,322c.19,10.35-.25,20.74-.82,31.08a287.59,287.59,0,0,1-6.9,47.83q-22.28,98.33-95.42,167.74-60.95,57.78-142.36,79.15A320.6,320.6,0,0,1,348.78,658C345.78,658.12,342.78,658.38,339.79,658.6ZM158,226.68c.86.49,1.37.8,1.9,1.08Q242,271.29,324.07,314.83a3.41,3.41,0,0,0,3.64,0q82-43.52,164-87c.61-.33,1.2-.71,2-1.19-.8-.51-1.37-.92-2-1.26q-82-47.33-163.91-94.69a3.34,3.34,0,0,0-3.87,0q-81.93,47.39-163.9,94.7C159.48,225.75,158.89,226.13,158,226.68ZM300.66,525.23c0-1.09,0-1.74,0-2.38q0-83,0-166a3.36,3.36,0,0,0-2.08-3.41q-69-37.22-138-74.52c-.56-.3-1.15-.54-2-.93v2.24q0,80.43,0,160.85a3.24,3.24,0,0,0,1.84,3.25q69,39.78,138,79.63C299,524.36,299.64,524.68,300.66,525.23ZM493.93,279c-.82.39-1.41.64-2,.94q-68.71,37.12-137.44,74.22a3.23,3.23,0,0,0-2,3.29q.07,82.73,0,165.46v2.23c.84-.41,1.39-.63,1.89-.92q68.92-39.79,137.86-79.57a3.14,3.14,0,0,0,1.78-3.13q-.05-80.18,0-160.35C494.06,280.54,494,279.91,493.93,279Z"/><path class="cls-1" d="M158,226.68c.89-.55,1.48-.94,2.08-1.29q82-47.34,163.9-94.7a3.34,3.34,0,0,1,3.87,0q81.94,47.38,163.91,94.69c.6.35,1.18.75,2,1.26-.82.49-1.4.87-2,1.19q-82,43.48-164,87a3.41,3.41,0,0,1-3.64,0Q242,271.27,159.9,227.77C159.37,227.49,158.86,227.18,158,226.68Z"/><path class="cls-1" d="M300.66,525.23c-1-.56-1.65-.87-2.25-1.22q-69-39.83-138-79.63a3.24,3.24,0,0,1-1.84-3.25q.06-80.43,0-160.85V278c.85.4,1.44.63,2,.93q69,37.27,138,74.52a3.36,3.36,0,0,1,2.08,3.41q-.08,83,0,166C300.66,523.49,300.66,524.14,300.66,525.23Z"/><path class="cls-1" d="M493.93,279c.06.91.13,1.54.13,2.18q0,80.18,0,160.35a3.14,3.14,0,0,1-1.78,3.13q-68.95,39.75-137.86,79.57c-.5.29-1,.51-1.89.92v-2.23q0-82.73,0-165.46a3.23,3.23,0,0,1,2-3.29Q423.26,317.09,492,279.94C492.52,279.63,493.11,279.39,493.93,279Z"/></g></g></svg>